<svg xmlns="http://www.w3.org/2000/svg" width="138.146" height="69" viewBox="0 0 138.146 69">
  <g id="design_components" transform="translate(0 0)">
    <path id="패스_48" data-name="패스 48" d="M139.188,205.26a29.036,29.036,0,0,0-10.951,2.124l-.421.174A29.149,29.149,0,0,0,110,234.448V266.3a1.27,1.27,0,0,0,1.269,1.269l.025,0a397.477,397.477,0,0,0,70.676,6.691l1.009,0a308.746,308.746,0,0,0,63.869-6.688l.03,0a1.27,1.27,0,0,0,1.269-1.269V206.528a1.27,1.27,0,0,0-1.269-1.269Z" transform="translate(-110 -205.26)" fill="#01a781"/>
    <path id="Path_40" data-name="Path 40" d="M850.69,385.451a.838.838,0,1,0,0,1.676h21.017a.838.838,0,1,0,.027-1.676H850.69Z" transform="translate(-745.559 -360.05)" fill="#3f3d56"/>
    <path id="패스_49" data-name="패스 49" d="M1031.362,383.5a.165.165,0,0,0,0,.233l.708.708h-1.746a.165.165,0,0,0,0,.33h1.747l-.708.708a.165.165,0,1,0,.233.233l.99-.99a.165.165,0,0,0,0-.233l-.99-.99a.165.165,0,0,0-.234,0Z" transform="translate(-900.449 -358.332)" fill="#fff"/>
    <path id="패스_50" data-name="패스 50" d="M814.181,383.5a.165.165,0,0,1,0,.233l-.708.708h1.746a.165.165,0,1,1,0,.33h-1.746l.708.708a.165.165,0,0,1-.233.233l-.99-.99a.165.165,0,0,1,0-.233l.99-.99A.165.165,0,0,1,814.181,383.5Z" transform="translate(-713.824 -358.335)" fill="#fff"/>
    <g id="그룹_23" data-name="그룹 23" transform="translate(105.08 6.202)" opacity="0.4">
      <circle id="타원_3" data-name="타원 3" cx="0.901" cy="0.901" r="0.901" fill="#fff"/>
      <circle id="타원_4" data-name="타원 4" cx="0.901" cy="0.901" r="0.901" transform="translate(3.753)" fill="#fff"/>
      <circle id="타원_5" data-name="타원 5" cx="0.901" cy="0.901" r="0.901" transform="translate(7.506)" fill="#fff"/>
      <circle id="타원_6" data-name="타원 6" cx="0.901" cy="0.901" r="0.901" transform="translate(11.259)" fill="#fff"/>
      <circle id="타원_7" data-name="타원 7" cx="0.901" cy="0.901" r="0.901" transform="translate(15.013)" fill="#fff"/>
      <circle id="타원_8" data-name="타원 8" cx="0.901" cy="0.901" r="0.901" transform="translate(18.766)" fill="#fff"/>
      <circle id="타원_9" data-name="타원 9" cx="0.901" cy="0.901" r="0.901" transform="translate(22.519)" fill="#fff"/>
      <circle id="타원_10" data-name="타원 10" cx="0.901" cy="0.901" r="0.901" transform="translate(0 2.852)" fill="#fff"/>
      <circle id="타원_11" data-name="타원 11" cx="0.901" cy="0.901" r="0.901" transform="translate(3.753 2.852)" fill="#fff"/>
      <circle id="타원_12" data-name="타원 12" cx="0.901" cy="0.901" r="0.901" transform="translate(7.506 2.852)" fill="#fff"/>
      <circle id="타원_13" data-name="타원 13" cx="0.901" cy="0.901" r="0.901" transform="translate(11.259 2.852)" fill="#fff"/>
      <circle id="타원_14" data-name="타원 14" cx="0.901" cy="0.901" r="0.901" transform="translate(15.013 2.852)" fill="#fff"/>
      <circle id="타원_15" data-name="타원 15" cx="0.901" cy="0.901" r="0.901" transform="translate(18.766 2.852)" fill="#fff"/>
      <circle id="타원_16" data-name="타원 16" cx="0.901" cy="0.901" r="0.901" transform="translate(22.519 2.852)" fill="#fff"/>
      <circle id="타원_17" data-name="타원 17" cx="0.901" cy="0.901" r="0.901" transform="translate(0 5.705)" fill="#fff"/>
      <circle id="타원_18" data-name="타원 18" cx="0.901" cy="0.901" r="0.901" transform="translate(3.753 5.705)" fill="#fff"/>
      <circle id="타원_19" data-name="타원 19" cx="0.901" cy="0.901" r="0.901" transform="translate(7.506 5.705)" fill="#fff"/>
      <circle id="타원_20" data-name="타원 20" cx="0.901" cy="0.901" r="0.901" transform="translate(11.259 5.705)" fill="#fff"/>
      <circle id="타원_21" data-name="타원 21" cx="0.901" cy="0.901" r="0.901" transform="translate(15.013 5.705)" fill="#fff"/>
      <circle id="타원_22" data-name="타원 22" cx="0.901" cy="0.901" r="0.901" transform="translate(18.766 5.705)" fill="#fff"/>
      <circle id="타원_23" data-name="타원 23" cx="0.901" cy="0.901" r="0.901" transform="translate(22.519 5.705)" fill="#fff"/>
      <circle id="타원_24" data-name="타원 24" cx="0.901" cy="0.901" r="0.901" transform="translate(0 8.557)" fill="#fff"/>
      <circle id="타원_25" data-name="타원 25" cx="0.901" cy="0.901" r="0.901" transform="translate(3.753 8.557)" fill="#fff"/>
      <circle id="타원_26" data-name="타원 26" cx="0.901" cy="0.901" r="0.901" transform="translate(0 11.41)" fill="#fff"/>
      <circle id="타원_27" data-name="타원 27" cx="0.901" cy="0.901" r="0.901" transform="translate(3.753 11.41)" fill="#fff"/>
      <circle id="타원_28" data-name="타원 28" cx="0.901" cy="0.901" r="0.901" transform="translate(7.506 11.41)" fill="#fff"/>
      <circle id="타원_29" data-name="타원 29" cx="0.901" cy="0.901" r="0.901" transform="translate(7.506 8.557)" fill="#fff"/>
      <circle id="타원_30" data-name="타원 30" cx="0.901" cy="0.901" r="0.901" transform="translate(11.259 8.557)" fill="#fff"/>
      <circle id="타원_31" data-name="타원 31" cx="0.901" cy="0.901" r="0.901" transform="translate(15.013 8.557)" fill="#fff"/>
      <circle id="타원_32" data-name="타원 32" cx="0.901" cy="0.901" r="0.901" transform="translate(18.766 8.557)" fill="#fff"/>
      <circle id="타원_33" data-name="타원 33" cx="0.901" cy="0.901" r="0.901" transform="translate(22.519 8.557)" fill="#fff"/>
    </g>
    <path id="패스_51" data-name="패스 51" d="M739.857,520.118a4.972,4.972,0,1,1,4.972-4.972A4.972,4.972,0,0,1,739.857,520.118Zm0-9.662a4.69,4.69,0,1,0,4.69,4.69,4.69,4.69,0,0,0-4.69-4.69Z" transform="translate(-646.797 -467.192)" fill="#3f3d56"/>
    <path id="패스_52" data-name="패스 52" d="M757.543,530.448h-1.43v-1.43a.477.477,0,0,0-.953,0v1.43h-1.43a.477.477,0,0,0,0,.953h1.43v1.43a.477.477,0,0,0,.953,0V531.4h1.43a.477.477,0,0,0,0-.953Z" transform="translate(-662.577 -482.971)" fill="#fff"/>
    <g id="그룹_24" data-name="그룹 24" transform="translate(6.907 34.416)" opacity="0.4">
      <circle id="타원_34" data-name="타원 34" cx="0.708" cy="0.708" r="0.708" transform="translate(0 17.705)" fill="#fff"/>
      <circle id="타원_35" data-name="타원 35" cx="0.708" cy="0.708" r="0.708" transform="translate(0 14.754)" fill="#fff"/>
      <circle id="타원_36" data-name="타원 36" cx="0.708" cy="0.708" r="0.708" transform="translate(0 11.803)" fill="#fff"/>
      <circle id="타원_37" data-name="타원 37" cx="0.708" cy="0.708" r="0.708" transform="translate(0 8.853)" fill="#fff"/>
      <circle id="타원_38" data-name="타원 38" cx="0.708" cy="0.708" r="0.708" transform="translate(0 5.902)" fill="#fff"/>
      <circle id="타원_39" data-name="타원 39" cx="0.708" cy="0.708" r="0.708" transform="translate(0 2.951)" fill="#fff"/>
      <circle id="타원_40" data-name="타원 40" cx="0.708" cy="0.708" r="0.708" fill="#fff"/>
      <circle id="타원_41" data-name="타원 41" cx="0.708" cy="0.708" r="0.708" transform="translate(2.243 17.705)" fill="#fff"/>
      <circle id="타원_42" data-name="타원 42" cx="0.708" cy="0.708" r="0.708" transform="translate(2.243 14.754)" fill="#fff"/>
      <circle id="타원_43" data-name="타원 43" cx="0.708" cy="0.708" r="0.708" transform="translate(2.243 11.803)" fill="#fff"/>
      <circle id="타원_44" data-name="타원 44" cx="0.708" cy="0.708" r="0.708" transform="translate(2.243 8.853)" fill="#fff"/>
      <circle id="타원_45" data-name="타원 45" cx="0.708" cy="0.708" r="0.708" transform="translate(2.243 5.902)" fill="#fff"/>
      <circle id="타원_46" data-name="타원 46" cx="0.708" cy="0.708" r="0.708" transform="translate(2.243 2.951)" fill="#fff"/>
      <circle id="타원_47" data-name="타원 47" cx="0.708" cy="0.708" r="0.708" transform="translate(2.243)" fill="#fff"/>
      <circle id="타원_48" data-name="타원 48" cx="0.708" cy="0.708" r="0.708" transform="translate(4.485 17.705)" fill="#fff"/>
      <circle id="타원_49" data-name="타원 49" cx="0.708" cy="0.708" r="0.708" transform="translate(4.485 14.754)" fill="#fff"/>
      <circle id="타원_50" data-name="타원 50" cx="0.708" cy="0.708" r="0.708" transform="translate(4.485 11.803)" fill="#fff"/>
      <circle id="타원_51" data-name="타원 51" cx="0.708" cy="0.708" r="0.708" transform="translate(4.485 8.853)" fill="#fff"/>
      <circle id="타원_52" data-name="타원 52" cx="0.708" cy="0.708" r="0.708" transform="translate(4.485 5.902)" fill="#fff"/>
      <circle id="타원_53" data-name="타원 53" cx="0.708" cy="0.708" r="0.708" transform="translate(4.485 2.951)" fill="#fff"/>
      <circle id="타원_54" data-name="타원 54" cx="0.708" cy="0.708" r="0.708" transform="translate(4.485)" fill="#fff"/>
      <circle id="타원_55" data-name="타원 55" cx="0.708" cy="0.708" r="0.708" transform="translate(6.728 17.705)" fill="#fff"/>
      <circle id="타원_56" data-name="타원 56" cx="0.708" cy="0.708" r="0.708" transform="translate(6.728 14.754)" fill="#fff"/>
      <circle id="타원_57" data-name="타원 57" cx="0.708" cy="0.708" r="0.708" transform="translate(8.971 17.705)" fill="#fff"/>
      <circle id="타원_58" data-name="타원 58" cx="0.708" cy="0.708" r="0.708" transform="translate(8.971 14.754)" fill="#fff"/>
      <circle id="타원_59" data-name="타원 59" cx="0.708" cy="0.708" r="0.708" transform="translate(8.971 11.803)" fill="#fff"/>
      <circle id="타원_60" data-name="타원 60" cx="0.708" cy="0.708" r="0.708" transform="translate(6.728 11.803)" fill="#fff"/>
      <circle id="타원_61" data-name="타원 61" cx="0.708" cy="0.708" r="0.708" transform="translate(6.728 8.853)" fill="#fff"/>
      <circle id="타원_62" data-name="타원 62" cx="0.708" cy="0.708" r="0.708" transform="translate(6.728 5.902)" fill="#fff"/>
      <circle id="타원_63" data-name="타원 63" cx="0.708" cy="0.708" r="0.708" transform="translate(6.728 2.951)" fill="#fff"/>
      <circle id="타원_64" data-name="타원 64" cx="0.708" cy="0.708" r="0.708" transform="translate(6.728)" fill="#fff"/>
    </g>
    <path id="패스_53" data-name="패스 53" d="M315.4,238.262H268.355a.872.872,0,0,0-.871.872v40.229a.872.872,0,0,0,.871.872H315.4a.872.872,0,0,0,.872-.872V239.133A.872.872,0,0,0,315.4,238.262Zm.522,41.1a.524.524,0,0,1-.522.524H268.355a.523.523,0,0,1-.522-.524V239.133a.523.523,0,0,1,.522-.524H315.4a.524.524,0,0,1,.522.524Z" transform="translate(-245.284 -233.61)" fill="#3f3d56"/>
    <path id="패스_54" data-name="패스 54" d="M307.449,463.64c0,.062,0,.124,0,.184a3.549,3.549,0,0,1-7.088,0c0-.06,0-.122,0-.184a3.549,3.549,0,1,1,7.1,0Z" transform="translate(-273.519 -424.169)" fill="#fff"/>
    <path id="패스_55" data-name="패스 55" d="M407.943,468.479H380.058a.592.592,0,1,0,0,1.183h27.885a.592.592,0,1,0,0-1.183Z" transform="translate(-341.481 -431.374)" fill="#3f3d56"/>
    <path id="패스_56" data-name="패스 56" d="M392.061,493.66h-12a.591.591,0,1,0,0,1.182h12a.591.591,0,1,0,0-1.182Z" transform="translate(-341.486 -453.006)" fill="#fff"/>
    <path id="패스_57" data-name="패스 57" d="M392.66,298.336H345.614a1.207,1.207,0,0,1-1.205-1.205V276.485a1.206,1.206,0,0,1,1.205-1.205H392.66a1.207,1.207,0,0,1,1.205,1.205v20.646A1.207,1.207,0,0,1,392.66,298.336ZM345.614,275.7a.783.783,0,0,0-.782.782v20.646a.783.783,0,0,0,.782.782H392.66a.783.783,0,0,0,.782-.782V276.485a.783.783,0,0,0-.782-.782Z" transform="translate(-311.366 -265.409)" fill="#fff"/>
    <path id="패스_58" data-name="패스 58" d="M417.32,328.7a.591.591,0,1,0,0,1.183H445.2a.591.591,0,1,0,0-1.183Z" transform="translate(-373.49 -311.298)" fill="#fff"/>
    <path id="패스_59" data-name="패스 59" d="M417.32,353.012a.591.591,0,1,0,0,1.183H445.2a.591.591,0,1,0,0-1.183Z" transform="translate(-373.49 -332.184)" fill="#fff"/>
    <path id="패스_60" data-name="패스 60" d="M417.32,377.03a.591.591,0,1,0,0,1.183h12a.591.591,0,0,0,0-1.183Z" transform="translate(-373.49 -352.816)" fill="#fff"/>
    <path id="패스_61" data-name="패스 61" d="M707,456.78l-4.725-6.669,1.53.319a.212.212,0,0,0,.086-.414l-2.28-.475-.308,2.308a.212.212,0,1,0,.419.056l.206-1.55,4.726,6.669a.211.211,0,1,0,.345-.245Z" transform="translate(-617.948 -415.106)" fill="#fff"/>
    <path id="패스_62" data-name="패스 62" d="M351.2,580.23H317.619a.623.623,0,0,1-.622-.622v-8.331a.623.623,0,0,1,.622-.622H351.2a.623.623,0,0,1,.622.622v8.331A.623.623,0,0,1,351.2,580.23ZM317.619,570.9a.374.374,0,0,0-.373.373v8.331a.373.373,0,0,0,.373.373H351.2a.374.374,0,0,0,.373-.373v-8.331a.374.374,0,0,0-.373-.373Z" transform="translate(-287.817 -519.147)" fill="#3f3d56"/>
    <circle id="타원_65" data-name="타원 65" cx="2.534" cy="2.534" r="2.534" transform="translate(32.486 53.442)" fill="#fff"/>
    <path id="패스_63" data-name="패스 63" d="M397.365,590.368a.422.422,0,1,0,0,.844h19.906a.422.422,0,1,0,0-.844Z" transform="translate(-356.494 -536.081)" fill="#fff"/>
    <path id="패스_64" data-name="패스 64" d="M397.365,608.341a.422.422,0,1,0,0,.844h8.566a.422.422,0,1,0,0-.844Z" transform="translate(-356.494 -551.52)" fill="#fff"/>
    <path id="패스_65" data-name="패스 65" d="M870.234,428.016h14.927a.623.623,0,0,1,.622.622v15.546a.623.623,0,0,1-.622.622H870.234a.623.623,0,0,1-.622-.622V428.638a.623.623,0,0,1,.622-.622Zm14.927,16.541a.373.373,0,0,0,.373-.373V428.638a.374.374,0,0,0-.373-.373H870.234a.374.374,0,0,0-.373.373v15.546a.374.374,0,0,0,.373.373Z" transform="translate(-762.533 -396.615)" fill="#3f3d56"/>
    <path id="패스_66" data-name="패스 66" d="M902.581,519.234a.422.422,0,0,0,0-.845h-8.566a.422.422,0,0,0,0,.845Z" transform="translate(-783.133 -474.249)" fill="#fff"/>
    <path id="패스_67" data-name="패스 67" d="M902.581,501.585a.422.422,0,1,0,0-.844h-8.566a.422.422,0,1,0,0,.844Z" transform="translate(-783.133 -459.088)" fill="#fff"/>
    <path id="패스_68" data-name="패스 68" d="M910.773,450.758a2.658,2.658,0,1,1-2.658,2.658A2.658,2.658,0,0,1,910.773,450.758Z" transform="translate(-795.608 -416.151)" fill="#fff"/>
  </g>
</svg>
