<svg xmlns="http://www.w3.org/2000/svg" width="101.812" height="107.925" viewBox="0 0 101.812 107.925">
  <g id="security" transform="translate(0.005 0)">
    <path id="패스_22" data-name="패스 22" d="M241.659,265.923a19.991,19.991,0,0,1-4.956-.641l-.319-.088-.3-.148a82.1,82.1,0,0,1-26.828-21.06,79.726,79.726,0,0,1-13.546-24.054,92.58,92.58,0,0,1-5.235-32.613c0-.233.008-.413.008-.537a12.842,12.842,0,0,1,7.628-12.058c3.547-1.478,35.748-14.7,38.075-15.66,4.382-2.2,9.056-.363,9.8-.043,1.678.686,31.446,12.862,37.879,15.925,6.63,3.157,8.4,8.829,8.4,11.682a95.132,95.132,0,0,1-6.65,35.884,83.089,83.089,0,0,1-14.932,24.064c-12.189,13.717-24.382,18.58-24.5,18.623a13.323,13.323,0,0,1-4.531.724Zm-2.867-7.1a10.607,10.607,0,0,0,5.077.014c2.015-.735,12.22-6.027,21.757-16.759,13.176-14.827,19.861-33.467,19.871-55.4-.024-.444-.339-3.614-4.536-5.612-6.308-3-37.25-15.656-37.562-15.783l-.085-.036a5.606,5.606,0,0,0-4.135-.1l-.285.133c-.345.142-34.527,14.181-38.173,15.7a6.083,6.083,0,0,0-3.459,5.8c0,.154,0,.378-.01.668-.291,15.008,3.182,51.937,41.539,71.37Z" transform="translate(-190.465 -158)" fill="#3f3d56"/>
    <path id="패스_23" data-name="패스 23" d="M246.949,171.507s-34.493,14.167-38.189,15.707a9.413,9.413,0,0,0-5.544,8.931c0,3.7-2.772,51.919,43.732,75.235,0,0,4.221,1.168,7.423,0s43.854-20.878,43.854-75.389c0,0,0-5.543-6.467-8.623s-37.736-15.861-37.736-15.861S250.183,169.814,246.949,171.507Z" transform="translate(-199.807 -167.364)" fill="#01a781"/>
    <path id="패스_24" data-name="패스 24" d="M286.441,215.286v75.575s-34.8-16.752-34.493-60.792Z" transform="translate(-235.604 -200.056)" opacity="0.1"/>
    <path id="패스_25" data-name="패스 25" d="M162.321,175.326l-11.086-14.254,6.447-5.014,5.249,6.749,17.732-18.719,5.93,5.618Z" transform="translate(-111.03 -105.779)" fill="#fff"/>
  </g>
</svg>
