<svg xmlns="http://www.w3.org/2000/svg" width="112.506" height="107.925" viewBox="0 0 112.506 107.925">
  <g id="active_support" transform="translate(0.001 0)">
    <path id="패스_26" data-name="패스 26" d="M588.358,239.628c5.48-4.048,13.2-5.6,19.232-2.442a31.39,31.39,0,0,0-15.621,14.848c-1.26,2.564-2.395,5.548-4.995,6.733a7.017,7.017,0,0,1-5.2,0,20.841,20.841,0,0,1-4.635-2.608l-.441-.053C579.312,249.815,582.878,243.677,588.358,239.628Z" transform="translate(-500.01 -220.004)" fill="#f0f0f0"/>
    <path id="패스_27" data-name="패스 27" d="M607.822,241.794a26.83,26.83,0,0,0-15.54,5.568,11.554,11.554,0,0,0-2.532,2.587,6.627,6.627,0,0,0-1.093,3.312,13.713,13.713,0,0,1-.38,3.3,4.058,4.058,0,0,1-2.264,2.426,10.543,10.543,0,0,1-4.135.707,10.351,10.351,0,0,0-4.6.788c-.172.089-.3-.183-.128-.272,2.466-1.277,5.348-.444,7.94-1.2a4.109,4.109,0,0,0,2.8-2.282,10.639,10.639,0,0,0,.45-3.341,7.071,7.071,0,0,1,.948-3.278,10.681,10.681,0,0,1,2.423-2.675,26.03,26.03,0,0,1,7.044-4.071,27.306,27.306,0,0,1,9.086-1.862C608.041,241.489,608.014,241.789,607.822,241.794Z" transform="translate(-500.291 -224.477)" fill="#fff"/>
    <path id="패스_28" data-name="패스 28" d="M640.924,244.734a4.025,4.025,0,0,1,.946-5.126c.15-.122.346.106.2.228a3.727,3.727,0,0,0-.87,4.77C641.293,244.773,641.021,244.9,640.924,244.734Z" transform="translate(-547.56 -223.042)" fill="#fff"/>
    <path id="패스_29" data-name="패스 29" d="M622.065,283.981a7.759,7.759,0,0,0,5.626-.567c.172-.088.3.183.128.272a8.07,8.07,0,0,1-5.855.578C621.777,284.211,621.879,283.928,622.065,283.981Z" transform="translate(-533.731 -255.76)" fill="#fff"/>
    <path id="패스_30" data-name="패스 30" d="M673.208,245.683a2.279,2.279,0,0,0,1.567,1.49c.187.05.084.333-.1.283a2.553,2.553,0,0,1-1.737-1.644.155.155,0,0,1,.072-.2A.151.151,0,0,1,673.208,245.683Z" transform="translate(-571.85 -227.54)" fill="#fff"/>
    <path id="패스_31" data-name="패스 31" d="M611.265,302.818c-.118-.028-.235-.056-.355-.082a30,30,0,0,0-4.814-.718c-.125-.01-.252-.019-.378-.026a31.636,31.636,0,0,0-11.55,1.5,30.71,30.71,0,0,0-4.315,1.78c-1.921.969-3.927,2.173-6,2.443a5.264,5.264,0,0,1-.65.052l-7.652-8.052c-.008-.027-.018-.052-.027-.08l-.32-.307.211-.124.122-.07c.027-.016.055-.031.078-.046l.025-.014c.024-.016.047-.027.069-.041q.608-.347,1.224-.688s0,0,.005,0a45.171,45.171,0,0,1,9.853-4.12c.1-.028.208-.057.314-.082a29.316,29.316,0,0,1,4.709-.843,25.911,25.911,0,0,1,2.62-.109,21.55,21.55,0,0,1,6.643,1.126,17.112,17.112,0,0,1,10.032,8.2C611.166,302.614,611.216,302.714,611.265,302.818Z" transform="translate(-498.898 -263.069)" fill="#f0f0f0"/>
    <path id="패스_32" data-name="패스 32" d="M611.7,316.142a26.83,26.83,0,0,0-15.76-4.911,11.554,11.554,0,0,0-3.579.542,6.627,6.627,0,0,0-2.866,1.987,13.715,13.715,0,0,1-2.289,2.4,4.058,4.058,0,0,1-3.269.573,10.543,10.543,0,0,1-3.727-1.925,10.351,10.351,0,0,0-4.143-2.138c-.191-.032-.129-.326.061-.294,2.738.465,4.537,2.865,7.064,3.819a4.109,4.109,0,0,0,3.614-.134,10.643,10.643,0,0,0,2.371-2.4,7.07,7.07,0,0,1,2.73-2.047,10.681,10.681,0,0,1,3.545-.677,26.03,26.03,0,0,1,8.075.99,27.306,27.306,0,0,1,8.375,3.984c.157.111-.045.333-.2.223Z" transform="translate(-499.448 -276.315)" fill="#fff"/>
    <path id="패스_33" data-name="패스 33" d="M661.981,301.243a4.025,4.025,0,0,1,3.841-3.523c.193-.007.213.293.019.3a3.727,3.727,0,0,0-3.566,3.285C662.252,301.5,661.958,301.434,661.981,301.243Z" transform="translate(-563.68 -266.453)" fill="#fff"/>
    <path id="패스_34" data-name="패스 34" d="M629.8,320.063A7.759,7.759,0,0,0,634.629,323c.191.033.129.327-.061.294a8.07,8.07,0,0,1-5.023-3.064c-.117-.154.135-.318.251-.165Z" transform="translate(-539.442 -283.088)" fill="#fff"/>
    <path id="패스_35" data-name="패스 35" d="M694.351,318.906a2.278,2.278,0,0,0,.354,2.133c.119.153-.133.316-.251.165a2.553,2.553,0,0,1-.4-2.359.155.155,0,0,1,.178-.116A.151.151,0,0,1,694.351,318.906Z" transform="translate(-587.53 -282.136)" fill="#fff"/>
    <path id="패스_36" data-name="패스 36" d="M458.473,199.992h-.593V183.747a9.4,9.4,0,0,0-9.4-9.4H414.061a9.4,9.4,0,0,0-9.4,9.4v89.121a9.4,9.4,0,0,0,9.4,9.4h34.417a9.4,9.4,0,0,0,9.4-9.4V211.555h.593Z" transform="translate(-371.571 -174.345)" fill="#3f3d56"/>
    <path id="패스_37" data-name="패스 37" d="M456.5,184h-4.493a3.336,3.336,0,0,1-3.089,4.6H429.2a3.336,3.336,0,0,1-3.089-4.6h-4.2a7.021,7.021,0,0,0-7.021,7.021v88.99a7.021,7.021,0,0,0,7.021,7.021H456.5a7.021,7.021,0,0,0,7.021-7.021h0v-88.99A7.021,7.021,0,0,0,456.5,184Z" transform="translate(-379.214 -181.551)" fill="#fff"/>
    <path id="패스_38" data-name="패스 38" d="M456.341,363.527a19.39,19.39,0,1,1,19.126-16.221,19.369,19.369,0,0,1-19.126,16.221Zm0-38.014a18.421,18.421,0,0,0-8.459,2.029,18.642,18.642,0,1,0,8.459-2.029Z" transform="translate(-395.681 -286.635)" fill="#f0f0f0"/>
    <path id="패스_39" data-name="패스 39" d="M335.4,333.267A3.669,3.669,0,0,1,338.448,338l6.441,5.365-2.306,4.71-8.99-7.7a3.688,3.688,0,0,1,1.808-7.1Z" transform="translate(-316.751 -292.968)" fill="#ffb6b6"/>
    <path id="패스_40" data-name="패스 40" d="M407.181,372.708a19.309,19.309,0,0,0-1.116-4.808c-1.393-3.646-10.394-6.643-11.6-7.029l-.307-3.409-12.507-1.346-1.586,4.359-4.486,1.683a2.2,2.2,0,0,0-1.313,1.346h0l-4.024,1.163-3.971,1.148-13.8-9.721-.651.426-4.354,2.841-.672.438,17.854,16.108,6.632-1.556,4.988-1.173.426,1.728-1.1,6.072a19,19,0,0,0,24.572,1.964L403,380.427a18.98,18.98,0,0,0,4.26-7.484Z" transform="translate(-328.371 -310.033)" fill="#e4e4e4"/>
    <circle id="타원_2" data-name="타원 2" cx="9.005" cy="9.005" r="9.005" transform="translate(49.251 29.029) rotate(-18.319)" fill="#ffb6b6"/>
    <path id="패스_41" data-name="패스 41" d="M480.007,263.372a6.078,6.078,0,0,1,3.68-2.451,5.8,5.8,0,0,1,4.279.785,8.763,8.763,0,0,1,4.335-.738,4.622,4.622,0,0,1,3.575,2.352,6.428,6.428,0,0,0,.517,1,3.358,3.358,0,0,0,2.685.938l-1.486.866,1.481.69-2.015.769a5.79,5.79,0,0,1,1.349,5.87,11.7,11.7,0,0,1-3.28,4.974,7.474,7.474,0,0,1,.233-3.256,3.687,3.687,0,0,0-.548-3.284,3.727,3.727,0,0,0-2.077-.84A100.782,100.782,0,0,0,481.36,269.7a3.219,3.219,0,0,0-1.516.155c-.928.412-1.3,1.545-1.57,2.55a20.217,20.217,0,0,1,.306-5.272A9.657,9.657,0,0,1,480.007,263.372Z" transform="translate(-426.489 -238.891)" fill="#2f2e41"/>
    <path id="패스_42" data-name="패스 42" d="M495.992,505.583H485.348a1.394,1.394,0,1,1,0-2.788h10.644a1.394,1.394,0,0,1,0,2.788Z" transform="translate(-430.77 -419.556)" fill="#01a781"/>
    <path id="패스_43" data-name="패스 43" d="M304.388,213.47H275.111a1.018,1.018,0,0,1,0-2.037h29.277a1.018,1.018,0,1,1,0,2.037Z" transform="translate(-274.094 -202.034)" fill="#01a781"/>
    <path id="패스_44" data-name="패스 44" d="M321.292,239.134H275.111a1.018,1.018,0,1,1,0-2.036h46.181a1.018,1.018,0,0,1,0,2.036Z" transform="translate(-274.094 -221.194)" fill="#01a781"/>
    <path id="패스_45" data-name="패스 45" d="M312.419,263.311H275.112a1.018,1.018,0,1,1,0-2.036h37.306a1.018,1.018,0,0,1,0,2.036Z" transform="translate(-274.095 -239.244)" fill="#cacaca"/>
    <path id="패스_46" data-name="패스 46" d="M296.149,287.4H275.112a1.018,1.018,0,1,1,0-2.036h21.037a1.018,1.018,0,0,1,0,2.036Z" transform="translate(-274.095 -257.228)" fill="#cacaca"/>
    <path id="패스_47" data-name="패스 47" d="M307.769,311.486H275.111a1.018,1.018,0,1,1,0-2.036h32.658a1.018,1.018,0,0,1,0,2.036Z" transform="translate(-274.094 -275.21)" fill="#cacaca"/>
  </g>
</svg>
