<svg xmlns="http://www.w3.org/2000/svg" width="119.002" height="97" viewBox="0 0 119.002 97">
  <g id="wallet" transform="translate(-9.483 4.337)">
    <path id="패스_139" data-name="패스 139" d="M502.153,531.944a6.29,6.29,0,0,0,2.736-.092c.138-.043.289-.138.276-.276a.334.334,0,0,0-.062-.138,8.51,8.51,0,0,1-.827-1.575.137.137,0,0,0-.051-.072.129.129,0,0,0-.088,0c-.4.106-.752.366-1.153.478a1.64,1.64,0,0,1-.628.047c-.182-.021-.43-.171-.6-.152C501.854,530.767,502.082,531.329,502.153,531.944Z" transform="translate(-444.155 -473.138)" fill="#01a781"/>
    <path id="패스_140" data-name="패스 140" d="M623.723,514.835a4.782,4.782,0,0,0,1.582-1.485.258.258,0,0,0,.043-.128.265.265,0,0,0-.051-.124,5.119,5.119,0,0,0-1.285-1.387,3.749,3.749,0,0,0-.716.661c-.151.16-.57.413-.574.657,0,.138.16.3.234.413.1.149.2.3.287.455A5.4,5.4,0,0,1,623.723,514.835Z" transform="translate(-548.451 -457.554)" fill="#01a781"/>
    <path id="패스_141" data-name="패스 141" d="M472.178,539.942a.613.613,0,0,1-.11.4.542.542,0,0,1-.231.138c-1.277.457-2.755-.113-4.03.338-.262.092-.51.226-.773.314a4.2,4.2,0,0,1-.964.171c-.45.043-.9.07-1.356.083a3.262,3.262,0,0,1-1.022-.09,1.228,1.228,0,0,1-.784-.621.6.6,0,0,1-.039-.442.476.476,0,0,1,.084-.138,1.208,1.208,0,0,1,.3-.244l.47-.3a3.154,3.154,0,0,1,.712-.377c.186-.061.383-.087.572-.138a3.88,3.88,0,0,0,1.633-1.219l.639-.682a.644.644,0,0,1,.222-.178.613.613,0,0,1,.276-.026,3.684,3.684,0,0,1,1.743.584,2.261,2.261,0,0,0,.43.253,1.535,1.535,0,0,0,1.2-.149c.164-.088.128-.138.2-.295s.237-.258.383-.114a.406.406,0,0,1,.091.174,4.886,4.886,0,0,1,.085,1.42.625.625,0,0,0,.027.22,1.25,1.25,0,0,0,.125.2.475.475,0,0,1,.026.052,1.4,1.4,0,0,1,.092.665Z" transform="translate(-410.6 -479.292)" fill="#514e7f"/>
    <path id="패스_142" data-name="패스 142" d="M472.178,554.659a.613.613,0,0,1-.11.4.542.542,0,0,1-.231.138c-1.277.457-2.755-.113-4.03.338-.262.092-.51.226-.773.314a4.208,4.208,0,0,1-.964.171c-.45.043-.9.07-1.356.083a3.261,3.261,0,0,1-1.022-.09,1.228,1.228,0,0,1-.784-.621.6.6,0,0,1-.039-.442.476.476,0,0,1,.084-.138c.074.156.128.362.175.437a.894.894,0,0,0,.6.431,1.487,1.487,0,0,0,.551-.07,27.752,27.752,0,0,0,3.5-.725,8.1,8.1,0,0,1,1.146-.441,9.017,9.017,0,0,1,1.24-.1c.653-.052,1.285-.249,1.929-.353A1.4,1.4,0,0,1,472.178,554.659Z" transform="translate(-410.6 -494.009)" fill="#464353"/>
    <path id="패스_143" data-name="패스 143" d="M605.956,519.974a2.322,2.322,0,0,1-.705,1.256,8.219,8.219,0,0,0-.988,1.08,8.7,8.7,0,0,1-.909,1.56,2.492,2.492,0,0,1-.551.393,3.841,3.841,0,0,1-.71.327,5.292,5.292,0,0,1-2,.109,1.8,1.8,0,0,1-.637-.123,1.917,1.917,0,0,1-.265-.163,1.263,1.263,0,0,1-.413-.413.413.413,0,0,1-.04-.3.7.7,0,0,1,.191-.292,4.537,4.537,0,0,1,.485-.437,2.9,2.9,0,0,0,.631-.551,1.778,1.778,0,0,0,.244-.551,4.882,4.882,0,0,0,.178-1.054,3.349,3.349,0,0,1,.073-.705c.1-.364.372-.689.342-1.065a.267.267,0,0,1,.014-.161.224.224,0,0,1,.127-.078,2.244,2.244,0,0,1,.659-.153.767.767,0,0,1,.612.24c.094.113.156.276.293.32a.466.466,0,0,0,.209.008,1.755,1.755,0,0,0,.964-.3,1.2,1.2,0,0,0,.4-.878c0-.125-.056-.256.138-.276.146-.019.262.138.336.234a3.266,3.266,0,0,1,.645,1.174.346.346,0,0,1,.123-.023.533.533,0,0,1,.439.225A.875.875,0,0,1,605.956,519.974Z" transform="translate(-527.759 -462.778)" fill="#514e7f"/>
    <path id="패스_144" data-name="패스 144" d="M606.282,528.52a2.322,2.322,0,0,1-.705,1.256,8.212,8.212,0,0,0-.988,1.08,8.7,8.7,0,0,1-.909,1.56,2.5,2.5,0,0,1-.551.393,3.851,3.851,0,0,1-.709.326,5.292,5.292,0,0,1-2,.109,1.8,1.8,0,0,1-.636-.123,1.914,1.914,0,0,1-.265-.163,1.263,1.263,0,0,1-.413-.413,1.007,1.007,0,0,1,.413-.1c.3.016.515.3.8.384.406.123.811-.164,1.223-.262.269-.063.551-.047.817-.138a2.021,2.021,0,0,0,.6-.367,3.077,3.077,0,0,0,.646-.623,4,4,0,0,0,.379-.756,10.814,10.814,0,0,1,.766-1.466,1.036,1.036,0,0,1,.156-.2,2.17,2.17,0,0,1,.211-.153,1.6,1.6,0,0,0,.486-.887,1.547,1.547,0,0,1,.109-.3.533.533,0,0,1,.439.225A.875.875,0,0,1,606.282,528.52Z" transform="translate(-528.085 -471.324)" fill="#464353"/>
    <path id="패스_145" data-name="패스 145" d="M438.177,200.694a2.922,2.922,0,0,1,.827.964,19.9,19.9,0,0,1,1.24,3.732c.362-.365,1.791-.424,2.157-.789.153-.153.978-.916,1.1-1.094s1.044-.551,1.145-.738c.376-.674-2.667-3.226-2.277-3.892a.173.173,0,0,0,.032-.1.17.17,0,0,0-.051-.081,4.566,4.566,0,0,0-.88-.6,1.4,1.4,0,0,1-.671-.8,2.893,2.893,0,0,0-.778.526q-.838.718-1.646,1.464c-.211.2-.619.456-.716.736C437.543,200.317,437.976,200.53,438.177,200.694Z" transform="translate(-388.868 -186.451)" fill="#a1616a"/>
    <path id="패스_146" data-name="패스 146" d="M453.3,214.13A8.964,8.964,0,0,0,452,215.2a2.594,2.594,0,0,0-.827,1.328c-.039.205-.033.413-.065.621-.138.9-.918,1.564-1.262,2.408a4.171,4.171,0,0,0-.219.806,9.521,9.521,0,0,0-.158,1.582c-.008.514.5.868.681,1.347a8.231,8.231,0,0,1,.328,1.464,17.347,17.347,0,0,0,.827,2.714c.679,1.876,2.881,7.063,3.56,8.941,2.082-.522,7.623-1.722,9.466-2.823.614-.366-4.264-4.5-3.607-4.786a.245.245,0,0,0,.185-.346c-.657-2.874-2.713-5.235-3.645-8.033a24.388,24.388,0,0,0-1.346-2.724c-.4-.836-.613-1.761-1.091-2.556a1.612,1.612,0,0,0-.349-.434,2.057,2.057,0,0,0-.384-.233C453.82,214.342,453.566,214.264,453.3,214.13Z" transform="translate(-399.068 -200.971)" fill="#514e7f"/>
    <circle id="타원_66" data-name="타원 66" cx="3.258" cy="3.258" r="3.258" transform="translate(46.161 7.401)" fill="#a1616a"/>
    <path id="패스_147" data-name="패스 147" d="M466.4,205.278a1.092,1.092,0,0,1,1.225-.176.592.592,0,0,1,.364.588l1.616.025a3.245,3.245,0,0,1,.766.07,1.113,1.113,0,0,1,.639.4c.019.026.041.058.074.062a.118.118,0,0,0,.074-.025,1.4,1.4,0,0,1,.8-.138,4.346,4.346,0,0,1,2.365,1.039.765.765,0,0,1,.276.343c.057.183-.011.413.138.544a19.4,19.4,0,0,0,.868,4.409,1.977,1.977,0,0,0,.489.7,2.834,2.834,0,0,1,.522.78c.295.766-.112,1.667.175,2.436a4.175,4.175,0,0,0,.551.875,2.262,2.262,0,0,1,.471,1.13c.012.185-.011.371,0,.551a3.332,3.332,0,0,0,.138.732q.176.667.369,1.332a3.024,3.024,0,0,0,1.124,1.871,9.176,9.176,0,0,1-4.661-.018,2.417,2.417,0,0,1-.581-.291,3.35,3.35,0,0,1-1.021-1.645,7.768,7.768,0,0,1-.569-2.123,2.434,2.434,0,0,0-.1-.689,1.961,1.961,0,0,0-.915-.862,4.393,4.393,0,0,1-1.1-.857,1.713,1.713,0,0,1-.446-1.287c.028-.227.117-.446.125-.675a.529.529,0,0,0-.313-.551c-1.128-.342-1.667-1.678-1.918-2.83a9.093,9.093,0,0,1-.145-1.8l-.015-1.175a1.551,1.551,0,0,1-.507-1.115,1.327,1.327,0,0,0-.007-.369,1.019,1.019,0,0,0-.259-.393A3.506,3.506,0,0,1,466.4,205.278Z" transform="translate(-413.667 -193.089)" fill="#464353"/>
    <path id="패스_148" data-name="패스 148" d="M439.79,228.069a9.021,9.021,0,0,1-.036,1.094c-.032.138-.087.276-.127.4a2.37,2.37,0,0,0,.15,1.533,8.542,8.542,0,0,0,.784,1.357,2.2,2.2,0,0,1,.251.47,2.429,2.429,0,0,1,.1.536,16.644,16.644,0,0,0,.383,2.166,54.543,54.543,0,0,0,2.314,6.383.519.519,0,0,0,.314.214.572.572,0,0,0,.267-.055l.827-.317a.54.54,0,0,0,.191-.1.493.493,0,0,0,.118-.325,56.3,56.3,0,0,0-1.92-6.621,50.637,50.637,0,0,1-2.013-5.752,4.179,4.179,0,0,0-.591-1.839c-.167-.182-.11-.1-.31-.01a2.264,2.264,0,0,0-.292.153A.956.956,0,0,0,439.79,228.069Z" transform="translate(-390.527 -212.154)" fill="#464353"/>
    <path id="패스_149" data-name="패스 149" d="M556.62,320.79" transform="translate(-491.457 -292.936)" fill="#464353"/>
    <path id="패스_150" data-name="패스 150" d="M458.2,225.249c.222,1.172.451,2.342.678,3.514l3.235-.847a2.274,2.274,0,0,0-.276-.964c-.295-.74-.3-1.564-.54-2.324-.18-.579-.495-1.11-.664-1.693-.1-.339-.147-.689-.244-1.032a7.5,7.5,0,0,0-.38-.985,6.166,6.166,0,0,0-.705-1.307,2.057,2.057,0,0,0-1.09.707,1.526,1.526,0,0,0-.2.689c-.056.726.207,1.456.12,2.178A6.406,6.406,0,0,0,458.2,225.249Z" transform="translate(-406.425 -205.696)" fill="#01a781"/>
    <path id="패스_151" data-name="패스 151" d="M476.96,329.971a3.864,3.864,0,0,1-.3,2.1,16.244,16.244,0,0,0-.659,3.155,2.728,2.728,0,0,1-.163.8c-.1.23-.275.424-.394.643a3.231,3.231,0,0,0-.247,1.937c.047.434.117.867.2,1.294a3.272,3.272,0,0,1,.084,1.577c.256-.056.43.276.413.536a1.429,1.429,0,0,0,.025.776c.317.116.32.551.31.889a7.476,7.476,0,0,0,.22,1.736q.719,3.458,1.526,6.9a5.325,5.325,0,0,0,3.634.237.729.729,0,0,0,.46-.463.806.806,0,0,0-.044-.355l-.526-1.915a3.517,3.517,0,0,1-.189-1.416c.051-.354.205-.736.032-1.048-.059-.107-.153-.191-.222-.293-.276-.4-.131-.944-.109-1.433a1.135,1.135,0,0,0-.022-.328,1.637,1.637,0,0,0-.157-.36,5.5,5.5,0,0,1-.606-2.736.677.677,0,0,0-.048-.357,1.145,1.145,0,0,1-.09-.146.4.4,0,0,1,.029-.263,2.41,2.41,0,0,1-.424-.413.594.594,0,0,0,.1-.929.31.31,0,0,0,.147-.533c-.068-.047-.157-.068-.205-.138-.074-.1-.014-.244.047-.353l.321-.58c.24-.431.293-.964.551-1.378a10.322,10.322,0,0,0,.849-1.937l.927-2.558.624.541a1.972,1.972,0,0,1,.512.584,2.52,2.52,0,0,1,.167.7c.229,1.389,1.1,2.593,1.426,3.961a2.608,2.608,0,0,0,.295.884,1.931,1.931,0,0,1,.168.253,1.343,1.343,0,0,1,.07.42,1.961,1.961,0,0,0,.827,1.405c.307.211.689.355.856.689a1.283,1.283,0,0,0,.138.293c.149.179.47.2.533.424.036.125-.03.276.04.386a.365.365,0,0,0,.153.114l.9.448c1,.5,1.515,1.653,2.255,2.492a5.374,5.374,0,0,1,.675.893c.32.572.467,1.29,1.007,1.653a1.523,1.523,0,0,1,.391.291c.169.223.107.536.123.817s.23.616.5.53a1.961,1.961,0,0,0,0,1.04,5.235,5.235,0,0,0,3.177-1.287,1.254,1.254,0,0,0,.517-.868.312.312,0,0,0-.039-.172.493.493,0,0,0-.2-.153c-.839-.455-1.091-1.509-1.515-2.364a20.491,20.491,0,0,0-1.378-2.106c-1-1.509-1.678-3.334-3.187-4.33a2.168,2.168,0,0,1-.884-.776c-.092-.2-.1-.434-.176-.643a.558.558,0,0,0-.471-.413,2.888,2.888,0,0,0,.108-1,1.264,1.264,0,0,0-.05-.431,2.1,2.1,0,0,0-.222-.427,4.1,4.1,0,0,1-.568-2.2,3.614,3.614,0,0,0-.039-1.189c-.061-.191-.167-.366-.24-.551a3.444,3.444,0,0,1-.172-1.036l-.083-1.324a6.515,6.515,0,0,0-.171-1.309c-.276-1.028-.551-5.333-1.495-5.818s-2.565,2.828-3.627,2.893a4.723,4.723,0,0,0-1.378.266,6.712,6.712,0,0,0-1.876,1.24l-1.954,1.641A7.2,7.2,0,0,1,476.96,329.971Z" transform="translate(-421.222 -294.823)" fill="#464353"/>
    <path id="패스_152" data-name="패스 152" d="M414.964,163.922a2.456,2.456,0,0,1,1.9-.924,4.415,4.415,0,0,1,2.1.526,2.59,2.59,0,0,0,.612.251c.344.07.727-.023,1.039.138a1.244,1.244,0,0,1,.457,1.24,2.276,2.276,0,0,0,.124,1.378,3.2,3.2,0,0,1,.238.36,1.189,1.189,0,0,1-.019.766,4.964,4.964,0,0,1-.4-.506.466.466,0,0,0-.57-.147c-.178.12-.175.338-.185.533s-.059.43-.244.493a.4.4,0,0,1-.413-.161c-.315-.386-.189-1-.5-1.39-.178-.22-.474-.328-.638-.559-.129-.182-.163-.413-.276-.609s-.376-.339-.551-.2a.746.746,0,0,0-.147.2.847.847,0,0,1-1.006.3,1.682,1.682,0,0,0-.435-.189.539.539,0,0,0-.5.276,1.076,1.076,0,0,0-.138.576,1.327,1.327,0,0,1-.107.789.817.817,0,0,1-.22.209.686.686,0,0,1-.763.079.573.573,0,0,1-.171-.535,4.321,4.321,0,0,1,.163-.565c.121-.427-.037-.908.1-1.31A4.182,4.182,0,0,1,414.964,163.922Z" transform="translate(-368.602 -156.881)" fill="#464353"/>
    <path id="패스_153" data-name="패스 153" d="M432.755,203.526a.5.5,0,0,0,.03.3.475.475,0,0,0,.163.156,3.342,3.342,0,0,0,1.535.5.467.467,0,0,1,.212.055.373.373,0,0,1,.089.427,1.111,1.111,0,0,0-.1.455c.04.288.382.413.67.456a1.557,1.557,0,0,0,1.165-.227,1.8,1.8,0,0,0,.481-.721c.791-1.817,1.068-3.826,1.868-5.637a1.2,1.2,0,0,0,.12-.377.372.372,0,0,0-.149-.347c-.149-.092-.38-.04-.481-.185-.05-.073-.044-.172-.088-.249-.092-.164-.335-.138-.5-.233-.129-.069-.219-.211-.364-.238a.457.457,0,0,0-.376.163,4.844,4.844,0,0,0-.978,1.646,19.307,19.307,0,0,1-1.4,2.6,1.514,1.514,0,0,0-.438-.858c-.247-.05-.562.383-.7.544A3.467,3.467,0,0,0,432.755,203.526Z" transform="translate(-384.648 -186.765)" fill="#01a781"/>
    <path id="패스_154" data-name="패스 154" d="M459.536,200.32a.66.66,0,0,0-.511.256,1.457,1.457,0,0,0-.214.689,5.986,5.986,0,0,1-.811,2.179" transform="translate(-406.424 -189.063)" opacity="0.1"/>
    <path id="패스_155" data-name="패스 155" d="M464.834,204.31a.787.787,0,0,0-.668.4,2.253,2.253,0,0,0-.168.681,3.735,3.735,0,0,1-.668,1.431" transform="translate(-411.019 -192.503)" opacity="0.1"/>
    <path id="패스_156" data-name="패스 156" d="M229.534,359.38v-1.711a4.75,4.75,0,0,0-4.75-4.749H157.21a4.75,4.75,0,0,0-4.75,4.749v3.155Z" transform="translate(-142.977 -320.64)" fill="#33323d"/>
    <path id="패스_157" data-name="패스 157" d="M323.361,272.342s-.193,11.966,1.929,15.9,3.031,21.066,3.031,21.066,22.241,2.3,37.74-2.755,48.477-7.124,48.477-7.124l-5.558-37.458s-27.456-1.761-43.074,5.688S323.361,272.342,323.361,272.342Z" transform="translate(-286.053 -246.352)" fill="#8dd070"/>
    <ellipse id="타원_67" data-name="타원 67" cx="5.197" cy="11.145" rx="5.197" ry="11.145" transform="translate(68.505 33.909) rotate(-7.1)" opacity="0.1"/>
    <path id="패스_161" data-name="패스 161" d="M264.29,154.37s3.487,11.448,6.711,14.545,9.346,19.121,9.346,19.121,21.876-4.636,35.075-14.208,43.956-21.657,43.956-21.657L342.6,118.23s-26.672,6.751-39.25,18.633S264.29,154.37,264.29,154.37Z" transform="translate(-235.124 -122.567)" fill="#8dd070"/>
    <g id="그룹_27" data-name="그룹 27" transform="translate(29.166 -4.337)">
      <path id="패스_158" data-name="패스 158" d="M323.361,272.342s-.193,11.966,1.929,15.9,3.031,21.066,3.031,21.066,22.241,2.3,37.74-2.755,48.477-7.124,48.477-7.124l-5.558-37.458s-27.456-1.761-43.074,5.688S323.361,272.342,323.361,272.342Z" transform="translate(-315.219 -242.015)" opacity="0.1"/>
      <path id="패스_159" data-name="패스 159" d="M358.263,293.266s-.7,9.874,1.05,13.029,1.827,17.239,1.827,17.239,20.016.929,34.254-3.918,44.158-7.99,44.158-7.99l-3.4-30.633s-24.757-.255-39.206,6.567S358.263,293.266,358.263,293.266Z" transform="translate(-345.199 -258.568)" fill="#8dd070"/>
      <path id="패스_160" data-name="패스 160" d="M345.508,130.66s-26.673,6.751-39.251,18.633S267.2,166.8,267.2,166.8s3.488,11.447,6.715,14.544,9.346,19.122,9.346,19.122,21.873-4.637,35.071-14.209S362.29,164.6,362.29,164.6Z" transform="translate(-266.799 -128.948)" opacity="0.2"/>
      <path id="패스_162" data-name="패스 162" d="M264.29,154.37s3.487,11.448,6.711,14.545,9.346,19.121,9.346,19.121,21.876-4.636,35.075-14.208,43.956-21.657,43.956-21.657L342.6,118.23s-26.672,6.751-39.25,18.633S264.29,154.37,264.29,154.37Z" transform="translate(-264.29 -118.23)" opacity="0.1"/>
      <path id="패스_163" data-name="패스 163" d="M308,177.085s2.368,9.612,5,12.078,7.026,15.843,7.026,15.843,19.334-5.26,31.4-14.242S391,169.621,391,169.621L378.367,141.5s-23.639,7.353-35.3,18.28S308,177.085,308,177.085Z" transform="translate(-301.978 -138.294)" fill="#8dd070"/>
      <ellipse id="타원_68" data-name="타원 68" cx="5.197" cy="11.145" rx="5.197" ry="11.145" transform="translate(34.878 28.714) rotate(-24.97)" opacity="0.1"/>
    </g>
    <path id="패스_164" data-name="패스 164" d="M231.384,382.012v47.53a4.11,4.11,0,0,1-4.111,4.11H156.6a4.11,4.11,0,0,1-4.108-4.11V377.22a7.258,7.258,0,0,0,4.108.689h70.674A4.111,4.111,0,0,1,231.384,382.012Z" transform="translate(-143.003 -341.592)" opacity="0.1"/>
    <path id="패스_165" data-name="패스 165" d="M231.384,386.393v47.53a4.111,4.111,0,0,1-4.111,4.11H156.6a4.11,4.11,0,0,1-4.108-4.11V381.6a7.281,7.281,0,0,0,4.108.689h70.674A4.111,4.111,0,0,1,231.384,386.393Z" transform="translate(-143.003 -345.369)" fill="#504f60"/>
    <path id="패스_166" data-name="패스 166" d="M583.862,543.936v15.2H569.121a7.6,7.6,0,1,1,0-15.2Z" transform="translate(-495.682 -485.339)" opacity="0.1"/>
    <path id="패스_167" data-name="패스 167" d="M585.322,541v15.2H570.581a7.6,7.6,0,1,1,0-15.2Z" transform="translate(-496.941 -482.809)" fill="#33323d"/>
    <circle id="타원_69" data-name="타원 69" cx="2.963" cy="2.963" r="2.963" transform="translate(71.383 63.234)" opacity="0.1"/>
    <circle id="타원_70" data-name="타원 70" cx="2.963" cy="2.963" r="2.963" transform="translate(71.584 62.831)" fill="#01a781"/>
    <path id="패스_176" data-name="패스 176" d="M550.873,316.712a6.506,6.506,0,0,0-.743.78,1.561,1.561,0,0,0-.342,1,.512.512,0,0,0,.1.293.248.248,0,0,0,.276.084.371.371,0,0,0,.138-.121,6.629,6.629,0,0,1,.463-.5c.059-.059.138-.121.218-.1a.232.232,0,0,1,.094.062.633.633,0,0,1,.194.3.714.714,0,0,1-.214.587,1.5,1.5,0,0,0-.36.532.236.236,0,0,0,0,.171.257.257,0,0,0,.108.091,1.538,1.538,0,0,0,1.3.085c.276-.112.521-.3.8-.4a1.861,1.861,0,0,0,.355-.138.739.739,0,0,0,.315-.473,1.95,1.95,0,0,0,.021-.58,6.672,6.672,0,0,0-.474-2.181.276.276,0,0,0-.08-.116.255.255,0,0,0-.138-.037,3.276,3.276,0,0,0-1.272-.087.9.9,0,0,0-.3.267C551.271,316.3,550.873,316.619,550.873,316.712Z" transform="translate(-485.567 -288.737)" fill="#a1616a"/>
    <path id="패스_177" data-name="패스 177" d="M525.892,238.829c0-.336-.413-1.148.244-1.2,0-.36-.508-.583-.413-.964.03-.127.138-.23.15-.36.041-.368-.623-.568-.513-.92.041-.138.187-.218.219-.354.074-.318-.495-.46-.506-.787,0-.11.062-.214.056-.324,0-.138-.12-.242-.186-.362-.172-.307-.088-.782-.4-.941.208.018.276-.291.19-.479s-.26-.353-.262-.562a.849.849,0,0,0,0-.229c-.058-.2-.387-.218-.442-.413a1.767,1.767,0,0,1-.007-.226c-.022-.156-.182-.255-.332-.3a1.354,1.354,0,0,1-.444-.158c-.1-.073-.208-.194-.311-.138-.039.023-.058.068-.087.1-.124.145-.361.081-.517-.025a2.122,2.122,0,0,1-.787-1.42c-.1-.547-.1-1.112-.218-1.653a3.528,3.528,0,0,0-.149-.5,2.61,2.61,0,0,1-.231-.493c-.025-.317.631-.1.88-.069a3.921,3.921,0,0,1,.715.138,7.666,7.666,0,0,1,.732.321c.995.44,2.2.493,3,1.232a2.51,2.51,0,0,0,.827.671,3.741,3.741,0,0,1,.463.12c.379.178.438.681.645,1.044a2.042,2.042,0,0,1,.169.3,1.166,1.166,0,0,1,.055.386l.029.955a35.192,35.192,0,0,1-.077,4.793,3.93,3.93,0,0,0,.018,1.569c.041.138.1.267.138.406a2.485,2.485,0,0,1,.052.5l.022.619a.193.193,0,0,1-.03.138.2.2,0,0,1-.167.04c-.861-.077-1.732-.562-2.545-.269" transform="translate(-460.697 -211.165)" fill="#464353"/>
    <path id="패스_184" data-name="패스 184" d="M852.05,509.743l3.543-.473S853.586,511.319,852.05,509.743Z" transform="translate(-746.187 -455.45)" opacity="0.05"/>
    <path id="패스_185" data-name="패스 185" d="M870.006,484.14s.121,1.254-.646,1.725C869.36,485.865,870.734,485.65,870.006,484.14Z" transform="translate(-761.112 -433.782)" opacity="0.1"/>
  </g>
</svg>
